<?xml version="1.0" encoding="iso-8859-1"?>
<!-- Uploaded to: SVG Repo, www.svgrepo.com, Generator: SVG Repo Mixer Tools -->
<svg fill="#000000" height="800px" width="800px" version="1.1" id="Layer_1" xmlns="http://www.w3.org/2000/svg" xmlns:xlink="http://www.w3.org/1999/xlink" 
	 viewBox="0 0 512 512" xml:space="preserve">
<g>
	<g>
		<path d="M372.87,0H139.13c-27.618,0-50.087,22.469-50.087,50.087v267.125c0,0.003,0,0.008,0,0.011v144.69
			c0,27.618,22.469,50.087,50.087,50.087H372.87c27.618,0,50.087-22.469,50.087-50.087V50.087C422.957,22.469,400.487,0,372.87,0z
			 M222.609,33.391h66.783v66.783h-66.783V33.391z M222.609,133.565h66.783v66.783h-66.783V133.565z M222.609,233.739h66.783v66.783
			h-66.783V233.739z M265.78,333.913l-48.062,48.062c-6.511,6.509-17.1,6.509-23.611,0l-48.061-48.062H265.78z M122.435,50.087
			c0-9.206,7.49-16.696,16.696-16.696h50.087v66.783h-66.783V50.087z M122.435,133.565h66.783v66.783h-66.783V133.565z
			 M122.435,233.739h66.783v66.783h-66.783V233.739z M389.565,461.913c0,9.206-7.49,16.696-16.696,16.696H139.13
			c-9.206,0-16.696-7.49-16.696-16.696V357.524l48.062,48.062c9.764,9.764,22.59,14.647,35.416,14.647
			c12.826,0,25.652-4.883,35.416-14.647l71.673-71.673h76.563V461.913z M389.565,300.522h-66.783v-66.783h66.783V300.522z
			 M389.565,200.348h-66.783v-66.783h66.783V200.348z M389.565,100.174h-66.783V33.391h50.087c9.206,0,16.696,7.49,16.696,16.696
			V100.174z"/>
	</g>
</g>
</svg>